<svg width="760" height="520" viewBox="0 0 760 520" fill="none" xmlns="http://www.w3.org/2000/svg">
  <defs>
    <linearGradient id="g1" x1="88" y1="40" x2="642" y2="476" gradientUnits="userSpaceOnUse">
      <stop stop-color="#0EA5A0"/>
      <stop offset="1" stop-color="#0B3D5A"/>
    </linearGradient>
    <linearGradient id="g2" x1="196" y1="118" x2="572" y2="410" gradientUnits="userSpaceOnUse">
      <stop stop-color="#F59E0B"/>
      <stop offset="1" stop-color="#FB923C"/>
    </linearGradient>
  </defs>

  <rect x="32" y="32" width="696" height="456" rx="30" fill="url(#g1)"/>
  <rect x="76" y="84" width="500" height="64" rx="14" fill="#E6F6FF" fill-opacity="0.16"/>
  <rect x="76" y="168" width="610" height="256" rx="20" fill="#F6FAFE"/>

  <circle cx="124" cy="116" r="9" fill="#FCD34D"/>
  <circle cx="154" cy="116" r="9" fill="#34D399"/>
  <circle cx="184" cy="116" r="9" fill="#60A5FA"/>

  <rect x="112" y="206" width="292" height="22" rx="11" fill="#DCE9F7"/>
  <rect x="112" y="244" width="462" height="18" rx="9" fill="#E8EFF8"/>
  <rect x="112" y="276" width="426" height="18" rx="9" fill="#E8EFF8"/>
  <rect x="112" y="308" width="252" height="18" rx="9" fill="#E8EFF8"/>

  <rect x="446" y="198" width="206" height="186" rx="18" fill="url(#g2)"/>
  <path d="M482 264C482 236.386 504.386 214 532 214H566C593.614 214 616 236.386 616 264V318C616 345.614 593.614 368 566 368H532C504.386 368 482 345.614 482 318V264Z" fill="white" fill-opacity="0.93"/>
  <path d="M548 248L560 272H536L548 248Z" fill="#0EA5A0"/>
  <rect x="528" y="284" width="40" height="8" rx="4" fill="#0EA5A0"/>
  <rect x="522" y="298" width="52" height="8" rx="4" fill="#0EA5A0" fill-opacity="0.5"/>

  <rect x="612" y="84" width="74" height="74" rx="20" fill="#F8FAFC"/>
  <path d="M650 108C640.059 108 632 116.059 632 126C632 135.941 640.059 144 650 144C659.941 144 668 135.941 668 126C668 116.059 659.941 108 650 108ZM650 116C655.523 116 660 120.477 660 126C660 131.523 655.523 136 650 136C644.477 136 640 131.523 640 126C640 120.477 644.477 116 650 116Z" fill="#0B3D5A"/>
</svg>
